<?xml version="1.0" encoding="utf-8"?>
<!-- Generator: Adobe Illustrator 22.1.0, SVG Export Plug-In . SVG Version: 6.00 Build 0)  -->
<svg version="1.1" id="Capa_1" xmlns="http://www.w3.org/2000/svg" xmlns:xlink="http://www.w3.org/1999/xlink" x="0px" y="0px"
	 viewBox="0 0 567.4 567.4" style="enable-background:new 0 0 567.4 567.4;" xml:space="preserve">
<style type="text/css">
	.st0{fill:#66B266;}
</style>
<g>
	<g>
		<g id="group-2svg">
			<path id="path-1_10_" class="st0" d="M409.9,209.3c0,18.1-14.6,32.7-32.7,32.7c-18,0-32.7-14.6-32.7-32.7s14.6-32.7,32.7-32.7
				C395.3,176.6,409.9,191.2,409.9,209.3z"/>
			<path id="path-2_10_" class="st0" d="M222,209.3c0,18.1-14.6,32.7-32.7,32.7s-32.7-14.6-32.7-32.7s14.6-32.7,32.7-32.7
				S222,191.2,222,209.3z"/>
			<path id="path-3_10_" class="st0" d="M308.7,451.5h-45.4c-57.5,0-104.3-46.2-104.3-103c0-7.4,6-13.5,13.5-13.5s13.5,6,13.5,13.5
				c0,42.7,34,76.1,77.3,76.1h45.4c43.4,0,77.3-32.9,77.3-74.8c0-7.4,6-13.5,13.5-13.5c7.4,0,13.5,6,13.5,13.5
				C413,406.8,367.2,451.5,308.7,451.5z"/>
			<path id="path-4_10_" class="st0" d="M283.7,567.4C127.3,567.4,0.1,440.1,0.1,283.7C0.1,127.3,127.3,0,283.7,0
				c156.4,0,283.6,127.3,283.6,283.7C567.3,440.1,440.1,567.4,283.7,567.4z M283.7,26.9C142.2,26.9,27,142.1,27,283.7
				c0,141.6,115.2,256.8,256.7,256.8c141.5,0,256.7-115.2,256.7-256.8C540.4,142.1,425.3,26.9,283.7,26.9z"/>
		</g>
	</g>
</g>
</svg>
