<?xml version="1.0" encoding="utf-8"?>
<!-- Generator: Adobe Illustrator 22.1.0, SVG Export Plug-In . SVG Version: 6.00 Build 0)  -->
<svg version="1.1" id="Capa_1" xmlns="http://www.w3.org/2000/svg" xmlns:xlink="http://www.w3.org/1999/xlink" x="0px" y="0px"
	 viewBox="0 0 559.5 559.5" style="enable-background:new 0 0 559.5 559.5;" xml:space="preserve">
<style type="text/css">
	.st0{fill:#198C19;}
</style>
<g>
	<g>
		<g id="group-4svg">
			<path id="path-1_32_" class="st0" d="M308.5,464.9h-54.1c-67.1,0-121.6-50.4-121.6-112.3c0-7.4,6-13.5,13.5-13.5h270.4
				c7.4,0,13.5,6,13.5,13.5C430.1,414.6,375.5,464.9,308.5,464.9z M160.9,366.1c7.2,40.7,46.4,71.8,93.5,71.8h54.1
				c47.1,0,86.3-31.2,93.5-71.8H160.9z"/>
			<path id="path-2_32_" class="st0" d="M404.1,206.4c0,17.8-14.4,32.2-32.2,32.2c-17.8,0-32.2-14.4-32.2-32.2
				c0-17.8,14.4-32.2,32.2-32.2C389.7,174.2,404.1,188.6,404.1,206.4z"/>
			<path id="path-3_32_" class="st0" d="M218.9,206.4c0,17.8-14.4,32.2-32.2,32.2s-32.2-14.4-32.2-32.2c0-17.8,14.4-32.2,32.2-32.2
				S218.9,188.6,218.9,206.4z"/>
			<path id="path-4_32_" class="st0" d="M279.7,559.5C125.5,559.5,0.1,434,0.1,279.7C0.1,125.5,125.5,0,279.7,0
				s279.7,125.5,279.7,279.7C559.4,434,433.9,559.5,279.7,559.5z M279.7,26.9C140.4,26.9,27,140.3,27,279.7
				c0,139.4,113.4,252.8,252.7,252.8c139.4,0,252.7-113.4,252.7-252.8C532.5,140.3,419.1,26.9,279.7,26.9z"/>
		</g>
	</g>
</g>
</svg>
